<!-- Copie du kit (kitlogosolutionlumieredenoel/svg/) avec le SEUL viewBox
     resserre sur le dessin. Le kit livre un viewBox 0 0 800 400 dont ~51%
     est du vide : a height:52px l'en-tete n'affichait plus que 25px de
     logo au lieu des 49px de l'ancien PNG. Dessin reel mesure a
     x 91..678 / y 102..296 ; marge egale ajoutee pour retrouver le meme
     ratio dessin/boite que l'ancien logo (94.6%). AUCUN trace modifie. -->
<svg xmlns="http://www.w3.org/2000/svg" viewBox="85.5 96.5 598 205"><g transform="translate(64,92) scale(1.2)">
  <path d="M47 12 h26" stroke="#F5EFE0" stroke-width="7" stroke-linecap="round" fill="none"/>
  <path d="M44 26 h32" stroke="#F5EFE0" stroke-width="7" stroke-linecap="round" fill="none"/>
  <path d="M48 36 C32 48, 26 71, 26 92 C26 129, 41 156, 60 156 C79 156, 94 129, 94 92 C94 71, 88 48, 72 36 Z"
        stroke="#F5EFE0" stroke-width="6.5" stroke-linejoin="round" fill="none"/>
  <g><path transform="translate(38.28,121.00) scale(0.042969,-0.042969)" d="M414 -74Q349 -74 306.0 -59.5Q263 -45 238.0 -27.0Q213 -9 203.0 7.5Q193 24 193 29Q193 47 201.0 67.5Q209 88 221.0 105.5Q233 123 247.0 135.0Q261 147 272 147Q286 147 295 129Q297 127 305.0 119.0Q313 111 327.5 102.5Q342 94 363.5 87.0Q385 80 414 80Q477 80 517.0 118.5Q557 157 557 223Q557 269 535.5 305.0Q514 341 479.0 372.0Q444 403 399.0 432.5Q354 462 307.0 494.0Q260 526 215.0 563.0Q170 600 135.0 648.0Q100 696 78.5 756.5Q57 817 57 895Q57 962 80.0 1030.0Q103 1098 143.5 1159.5Q184 1221 239.0 1274.5Q294 1328 358.0 1367.5Q422 1407 491.5 1429.5Q561 1452 631 1452Q691 1452 739.0 1433.0Q787 1414 820.0 1379.5Q853 1345 871.0 1296.5Q889 1248 889 1188Q889 1131 869.0 1076.0Q849 1021 816.0 972.0Q783 923 741.5 881.5Q700 840 656.5 809.5Q613 779 572.0 762.0Q531 745 500 745Q473 745 451.5 757.5Q430 770 415.5 788.5Q401 807 393.0 827.5Q385 848 385 864Q385 877 388.5 881.0Q392 885 398.5 884.5Q405 884 415.0 881.5Q425 879 438 879Q480 879 531.0 908.0Q582 937 627.0 982.0Q672 1027 702.5 1081.0Q733 1135 733 1186Q733 1238 707.5 1268.0Q682 1298 621 1298Q583 1298 538.5 1283.5Q494 1269 449.0 1243.0Q404 1217 362.0 1180.0Q320 1143 288.0 1098.5Q256 1054 236.5 1002.5Q217 951 217 895Q217 836 238.5 789.5Q260 743 295.5 705.0Q331 667 376.0 635.0Q421 603 468.0 571.5Q515 540 560.0 506.5Q605 473 640.5 432.5Q676 392 697.5 342.5Q719 293 719 229Q719 167 695.5 111.5Q672 56 631.0 15.0Q590 -26 534.0 -50.0Q478 -74 414 -74Z" fill="#F0BC55"/></g></g>
<path transform="translate(268.00,138.00) scale(0.026000,-0.026000)" d="M34 173V199Q34 204 37.5 207.5Q41 211 46 211H137Q142 211 145.5 207.5Q149 204 149 199V179Q149 140 168.5 116.0Q188 92 219 92Q250 92 270.0 114.5Q290 137 290 174Q290 200 279.0 219.0Q268 238 248.0 255.0Q228 272 184 304Q134 340 103.5 368.0Q73 396 52.5 435.5Q32 475 32 527Q32 610 82.0 659.0Q132 708 214 708Q297 708 348.0 656.5Q399 605 399 520V496Q399 491 395.5 487.5Q392 484 387 484H297Q292 484 288.5 487.5Q285 491 285 496V522Q285 561 265.5 584.5Q246 608 214 608Q184 608 165.0 586.5Q146 565 146 527Q146 491 166.5 466.0Q187 441 247 397Q308 352 339.0 323.5Q370 295 387.0 261.0Q404 227 404 180Q404 95 353.0 43.5Q302 -8 219 -8Q136 -8 85.0 42.0Q34 92 34 173Z" fill="#F0BC55"/>
<path transform="translate(291.24,138.00) scale(0.026000,-0.026000)" d="M42 182V518Q42 604 94.5 656.0Q147 708 233 708Q319 708 372.0 656.0Q425 604 425 518V182Q425 96 372.0 44.0Q319 -8 233 -8Q147 -8 94.5 44.0Q42 96 42 182ZM309 177V523Q309 561 288.0 584.5Q267 608 233 608Q199 608 178.5 584.5Q158 561 158 523V177Q158 139 178.5 115.5Q199 92 233 92Q267 92 288.0 115.5Q309 139 309 177Z" fill="#F0BC55"/>
<path transform="translate(315.35,138.00) scale(0.026000,-0.026000)" d="M54 12V688Q54 693 57.5 696.5Q61 700 66 700H158Q163 700 166.5 696.5Q170 693 170 688V105Q170 100 175 100H391Q396 100 399.5 96.5Q403 93 403 88V12Q403 7 399.5 3.5Q396 0 391 0H66Q61 0 57.5 3.5Q54 7 54 12Z" fill="#F0BC55"/>
<path transform="translate(338.10,138.00) scale(0.026000,-0.026000)" d="M50 194V688Q50 693 53.5 696.5Q57 700 62 700H154Q159 700 162.5 696.5Q166 693 166 688V182Q166 142 186.0 117.0Q206 92 239 92Q272 92 292.0 117.0Q312 142 312 182V688Q312 693 315.5 696.5Q319 700 324 700H416Q421 700 424.5 696.5Q428 693 428 688V194Q428 103 376.0 47.5Q324 -8 239 -8Q153 -8 101.5 47.5Q50 103 50 194Z" fill="#F0BC55"/>
<path transform="translate(362.48,138.00) scale(0.026000,-0.026000)" d="M425 688V612Q425 607 421.5 603.5Q418 600 413 600H286Q281 600 281 595V12Q281 7 277.5 3.5Q274 0 269 0H177Q172 0 168.5 3.5Q165 7 165 12V595Q165 600 160 600H40Q35 600 31.5 603.5Q28 607 28 612V688Q28 693 31.5 696.5Q35 700 40 700H413Q418 700 421.5 696.5Q425 693 425 688Z" fill="#F0BC55"/>
<path transform="translate(386.20,138.00) scale(0.026000,-0.026000)" d="M54 12V688Q54 693 57.5 696.5Q61 700 66 700H158Q163 700 166.5 696.5Q170 693 170 688V12Q170 7 166.5 3.5Q163 0 158 0H66Q61 0 57.5 3.5Q54 7 54 12Z" fill="#F0BC55"/>
<path transform="translate(403.98,138.00) scale(0.026000,-0.026000)" d="M42 182V518Q42 604 94.5 656.0Q147 708 233 708Q319 708 372.0 656.0Q425 604 425 518V182Q425 96 372.0 44.0Q319 -8 233 -8Q147 -8 94.5 44.0Q42 96 42 182ZM309 177V523Q309 561 288.0 584.5Q267 608 233 608Q199 608 178.5 584.5Q158 561 158 523V177Q158 139 178.5 115.5Q199 92 233 92Q267 92 288.0 115.5Q309 139 309 177Z" fill="#F0BC55"/>
<path transform="translate(428.08,138.00) scale(0.026000,-0.026000)" d="M350 700H441Q446 700 449.5 696.5Q453 693 453 688V12Q453 7 449.5 3.5Q446 0 441 0H336Q326 0 323 10L174 434Q173 437 170.5 436.5Q168 436 168 433L169 12Q169 7 165.5 3.5Q162 0 157 0H66Q61 0 57.5 3.5Q54 7 54 12V688Q54 693 57.5 696.5Q61 700 66 700H169Q179 700 182 690L332 269Q333 266 335.5 266.5Q338 267 338 270V688Q338 693 341.5 696.5Q345 700 350 700Z" fill="#F0BC55"/>
<path d="M463 129 H559" stroke="#3A4D68" stroke-width="1.5"/>
<g transform="translate(581,116)">
      <path d="M5.5 0 h7 v3.5 h-7 z" fill="#F5EFE0" opacity="0.75"/>
      <path d="M5.5 3.5 C2.5 6.5, 1.5 11, 1.5 14 C1.5 19.5, 4.5 22.5, 9 22.5 C13.5 22.5, 16.5 19.5, 16.5 14 C16.5 11, 15.5 6.5, 12.5 3.5 Z" fill="#F0BC55"/>
    </g>
<path transform="translate(268.00,232.00) scale(0.096000,-0.096000)" d="M73 0V660H217V0ZM103 0V121H496V0Z" fill="#F5EFE0"/>
<path transform="translate(315.62,232.00) scale(0.096000,-0.096000)" d="M365 -14Q304 -14 256.5 -1.5Q209 11 174.0 34.5Q139 58 115.5 91.5Q92 125 80.5 167.0Q69 209 69 259V660H214V264Q214 213 230.5 179.5Q247 146 280.0 130.0Q313 114 364 114Q416 114 449.5 130.0Q483 146 499.5 179.5Q516 213 516 264V660H659V259Q659 129 585.5 57.5Q512 -14 365 -14Z" fill="#F5EFE0"/>
<path transform="translate(384.35,232.00) scale(0.096000,-0.096000)" d="M73 0V660H290L474 163H479L659 660H866V0H729L738 514H727L527 0H407L210 514H199L208 0Z" fill="#F5EFE0"/>
<path transform="translate(473.34,232.00) scale(0.096000,-0.096000)" d="M73 0V660H220V0Z" fill="#F5EFE0"/>
<path transform="translate(500.32,232.00) scale(0.096000,-0.096000)" d="M73 0V660H218V0ZM173 0V117H582V0ZM173 280V387H532V280ZM173 544V660H580V544ZM267 732 159 901H302L377 732Z" fill="#F5EFE0"/>
<path transform="translate(558.78,232.00) scale(0.096000,-0.096000)" d="M73 0V660H341Q395 660 439.0 651.5Q483 643 517.0 627.0Q551 611 574.5 587.5Q598 564 610.0 533.5Q622 503 622 466Q622 431 611.0 402.5Q600 374 578.0 353.0Q556 332 523.0 318.5Q490 305 446 300V285Q497 280 527.5 261.5Q558 243 575.5 212.0Q593 181 606 135L646 0H487L456 125Q447 165 430.0 187.5Q413 210 387.0 219.5Q361 229 324 229H217V0ZM217 337H331Q399 337 436.0 363.0Q473 389 473 444Q473 498 438.5 523.5Q404 549 335 549H217Z" fill="#F5EFE0"/>
<path transform="translate(622.82,232.00) scale(0.096000,-0.096000)" d="M73 0V660H218V0ZM173 0V117H582V0ZM173 280V387H532V280ZM173 544V660H580V544Z" fill="#F5EFE0"/>
<path transform="translate(268.00,296.00) scale(0.054000,-0.054000)" d="M140 0V104H333Q393 104 432.5 131.0Q472 158 491.5 208.0Q511 258 511 328Q511 387 498.5 430.0Q486 473 461.0 500.5Q436 528 398.0 542.0Q360 556 309 556H140V660H305Q422 660 496.5 621.0Q571 582 606.5 509.5Q642 437 642 335Q642 263 625.0 207.5Q608 152 579.0 112.5Q550 73 511.0 48.0Q472 23 427.5 11.5Q383 0 336 0ZM78 0V660H204V0Z" fill="#A6B8CE"/>
<path transform="translate(310.39,296.00) scale(0.054000,-0.054000)" d="M78 0V660H205V0ZM160 0V104H571V0ZM160 287V383H522V287ZM160 556V660H569V556Z" fill="#A6B8CE"/>
<path transform="translate(365.90,296.00) scale(0.054000,-0.054000)" d="M78 0V660H243L559 169H568L560 660H683V0H533L203 510H193L201 0Z" fill="#A6B8CE"/>
<path transform="translate(411.86,296.00) scale(0.054000,-0.054000)" d="M358 -13Q286 -13 230.0 10.0Q174 33 134.5 76.5Q95 120 74.0 183.0Q53 246 53 327Q53 444 93.0 520.5Q133 597 203.0 635.0Q273 673 362 673Q431 673 487.0 650.5Q543 628 582.5 584.5Q622 541 644.0 476.5Q666 412 666 329Q666 246 644.5 182.5Q623 119 583.0 75.5Q543 32 486.5 9.5Q430 -13 358 -13ZM361 89Q418 89 456.5 116.5Q495 144 515.5 196.0Q536 248 536 323Q536 400 515.0 455.0Q494 510 454.5 538.5Q415 567 358 567Q304 567 264.5 539.5Q225 512 204.0 458.5Q183 405 183 328Q183 270 195.0 225.5Q207 181 229.5 151.0Q252 121 285.5 105.0Q319 89 361 89Z" fill="#A6B8CE"/>
<path transform="translate(455.54,296.00) scale(0.054000,-0.054000)" d="M78 0V660H205V0ZM160 0V104H571V0ZM160 287V383H522V287ZM160 556V660H569V556ZM407 749Q376 749 358.0 762.0Q340 775 340 807Q340 837 358.0 850.5Q376 864 407 864Q437 864 454.5 850.5Q472 837 472 807Q472 775 454.0 762.0Q436 749 407 749ZM203 749Q173 749 155.0 762.0Q137 775 137 807Q137 837 155.0 850.5Q173 864 203 864Q233 864 251.5 850.5Q270 837 270 807Q270 775 252.0 762.0Q234 749 203 749Z" fill="#A6B8CE"/>
<path transform="translate(493.34,296.00) scale(0.054000,-0.054000)" d="M78 0V660H204V0ZM107 0V108H493V0Z" fill="#A6B8CE"/>
<path transform="translate(538.77,296.00) scale(0.028000,-0.028000)" d="M54 12V688Q54 693 57.5 696.5Q61 700 66 700H158Q163 700 166.5 696.5Q170 693 170 688V12Q170 7 166.5 3.5Q163 0 158 0H66Q61 0 57.5 3.5Q54 7 54 12Z" fill="#5E7290"/>
<path transform="translate(545.05,296.00) scale(0.028000,-0.028000)" d="M397 352V12Q397 7 393.5 3.5Q390 0 385 0H293Q288 0 284.5 3.5Q281 7 281 12V343Q281 379 266.0 399.0Q251 419 223 419Q194 419 178.0 398.0Q162 377 162 340V12Q162 7 158.5 3.5Q155 0 150 0H58Q53 0 49.5 3.5Q46 7 46 12V499Q46 504 49.5 507.5Q53 511 58 511H150Q155 511 158.5 507.5Q162 504 162 499V479Q162 476 164.5 475.5Q167 475 170 479Q204 519 265 519Q330 519 363.5 475.5Q397 432 397 352Z" fill="#5E7290"/>
<path transform="translate(557.34,296.00) scale(0.028000,-0.028000)" d="M38 155V357Q38 430 85.5 474.5Q133 519 215 519Q297 519 345.0 475.5Q393 432 393 365V351Q393 346 389.5 342.5Q386 339 381 339L289 335Q277 335 277 347V357Q277 382 259.5 400.5Q242 419 215 419Q188 419 171.0 399.0Q154 379 154 348V163Q154 132 171.0 112.0Q188 92 215 92Q242 92 259.5 110.5Q277 129 277 155V165Q277 170 280.5 173.5Q284 177 289 177L381 176Q386 176 389.5 172.5Q393 169 393 164V146Q393 77 345.0 34.5Q297 -8 215 -8Q133 -8 85.5 36.0Q38 80 38 155Z" fill="#5E7290"/>
<path transform="translate(569.15,296.00) scale(0.028000,-0.028000)" d="M35 69Q35 100 55.0 120.0Q75 140 106 140Q137 140 156.5 120.0Q176 100 176 69Q176 38 156.0 18.0Q136 -2 106 -2Q75 -2 55.0 18.0Q35 38 35 69Z" fill="#5E7290"/></svg>